<svg width="238" height="238" viewBox="0 0 238 238" fill="none" xmlns="http://www.w3.org/2000/svg">
<path d="M119 203.52C169.971 203.52 211.291 201.107 211.291 198.13C211.291 195.153 169.971 192.74 119 192.74C68.0291 192.74 26.709 195.153 26.709 198.13C26.709 201.107 68.0291 203.52 119 203.52Z" fill="#F5F5F5"/>
<g clip-path="url(#clip0_1422_11914)">
<path d="M136.637 61.6841C118.535 80.4118 109.067 81.7651 86.1319 92.1252C67.3813 100.595 48.8144 117.059 42.4808 137.572C25.7955 191.613 99.9578 198.37 134.975 189.548C159.63 183.337 169.493 169.032 175.736 145.301C178.164 136.071 178.872 126.088 182.871 117.305C187.168 107.868 195.967 103.274 200.347 94.9883C221.579 54.8287 160.766 36.7207 136.637 61.6841Z" fill="#FAFAFA"/>
<path d="M165.499 166.5C191.18 140.819 191.18 99.1814 165.499 73.5003C139.818 47.8192 98.1808 47.8192 72.4997 73.5003C46.8186 99.1814 46.8186 140.819 72.4997 166.5C98.1808 192.181 139.818 192.181 165.499 166.5Z" fill="#8FB2FF"/>
<path d="M161.693 162.302C185.105 138.891 185.105 100.934 161.693 77.5225C138.282 54.1113 100.325 54.1113 76.9141 77.5225C53.5029 100.934 53.5029 138.891 76.9141 162.302C100.325 185.713 138.282 185.713 161.693 162.302Z" fill="white"/>
<path d="M118.583 76.938C118.644 76.9467 119.797 77.1261 120.381 78.4044C120.437 78.5269 120.559 78.5981 120.685 78.5957C120.728 78.5949 120.772 78.5854 120.814 78.5664C120.979 78.4913 121.052 78.2969 120.976 78.1325C120.233 76.5064 118.73 76.2977 118.667 76.2898C118.489 76.2669 118.323 76.3934 118.301 76.5728C118.278 76.7507 118.403 76.9151 118.583 76.938Z" fill="#37474F"/>
<path d="M91.125 95.875C91.125 92.1951 92.5671 88.666 95.134 86.0639C97.7009 83.4618 101.182 82 104.812 82H141.312C144.943 82 148.424 83.4618 150.991 86.0639C153.558 88.666 155 92.1951 155 95.875V132.875C155 136.555 153.558 140.084 150.991 142.686C148.424 145.288 144.943 146.75 141.312 146.75H127.511C127.585 146.175 127.623 145.596 127.625 145.016C127.625 140.765 124.951 136.913 121.023 135.636C122.554 133.565 123.268 130.989 123.027 128.413C122.785 125.836 121.605 123.443 119.716 121.701C117.828 119.959 115.367 118.993 112.814 118.991C110.26 118.989 107.798 119.952 105.907 121.692C104.644 118.959 102.464 116.771 99.7562 115.518C97.0483 114.265 93.989 114.029 91.125 114.851V95.875ZM123.062 98.1875C123.062 97.5742 122.822 96.986 122.394 96.5523C121.967 96.1186 121.386 95.875 120.781 95.875C120.176 95.875 119.596 96.1186 119.168 96.5523C118.74 96.986 118.5 97.5742 118.5 98.1875V116.688C118.5 117.301 118.74 117.889 119.168 118.323C119.596 118.756 120.176 119 120.781 119H134.469C135.074 119 135.654 118.756 136.082 118.323C136.51 117.889 136.75 117.301 136.75 116.688C136.75 116.074 136.51 115.486 136.082 115.052C135.654 114.619 135.074 114.375 134.469 114.375H123.062V98.1875ZM94.5469 135.187C95.5954 135.187 96.6337 134.978 97.6024 134.571C98.5711 134.165 99.4513 133.568 100.193 132.817C100.934 132.065 101.522 131.173 101.923 130.191C102.325 129.209 102.531 128.157 102.531 127.094C102.531 126.031 102.325 124.978 101.923 123.996C101.522 123.014 100.934 122.122 100.193 121.371C99.4513 120.619 98.5711 120.023 97.6024 119.616C96.6337 119.209 95.5954 119 94.5469 119C92.4293 119 90.3984 119.853 88.9011 121.371C87.4037 122.888 86.5625 124.947 86.5625 127.094C86.5625 129.24 87.4037 131.299 88.9011 132.817C90.3984 134.335 92.4293 135.187 94.5469 135.187ZM95.6875 156C105.465 156 109.375 150.922 109.375 145.885C109.375 142.532 106.747 139.813 103.508 139.813H87.8674C84.628 139.813 82 142.532 82 145.885C82 150.94 85.9101 156 95.6875 156ZM111.656 153.688H111.551C113.114 151.395 113.947 148.672 113.938 145.885C113.938 143.647 113.262 141.547 112.094 139.813H118.181C120.882 139.813 123.067 142.143 123.067 145.016C123.067 149.335 119.805 153.688 111.656 153.688ZM112.801 135.187C114.314 135.187 115.765 134.578 116.834 133.494C117.904 132.41 118.505 130.94 118.505 129.406C118.505 127.873 117.904 126.402 116.834 125.318C115.765 124.234 114.314 123.625 112.801 123.625C111.289 123.625 109.838 124.234 108.769 125.318C107.699 126.402 107.098 127.873 107.098 129.406C107.098 130.94 107.699 132.41 108.769 133.494C109.838 134.578 111.289 135.187 112.801 135.187Z" fill="#8FB2FF"/>
<path d="M185.436 171.447C187.356 159.618 179.323 148.471 167.493 146.552C155.663 144.632 144.517 152.665 142.597 164.495C140.677 176.324 148.711 187.47 160.54 189.39C172.37 191.31 183.516 183.277 185.436 171.447Z" fill="#37474F"/>
<path d="M175.94 165.943H166.041V156.044C166.041 154.927 165.128 154.014 164.01 154.014C162.893 154.014 161.979 154.927 161.979 156.044V165.943H152.08C150.963 165.943 150.049 166.857 150.049 167.975C150.049 169.092 150.963 170.006 152.08 170.006H161.979V179.905C161.979 181.022 162.893 181.936 164.01 181.936C165.127 181.936 166.041 181.022 166.041 179.905V170.006H175.94C177.057 170.006 177.972 169.093 177.972 167.975C177.971 166.857 177.057 165.943 175.94 165.943Z" fill="white"/>
</g>
<defs>
<clipPath id="clip0_1422_11914">
<rect width="188" height="160" fill="white" transform="translate(25 44)"/>
</clipPath>
</defs>
</svg>
